<svg xmlns="http://www.w3.org/2000/svg" width="316.265" height="220.938" viewBox="0 0 316.265 220.938">
    <g id="ic_intro" transform="translate(0 0)">
        <path id="Path_8" data-name="Path 8"
              d="M278.689,614.351c-7.023,6.653-9.013,18.359-9.013,18.359s9.4.919,16.419-5.734,9.013-18.359,9.013-18.359S285.712,607.7,278.689,614.351Z"
              transform="translate(-230.444 -425.569)" fill="#5638ff"/>
        <path id="Path_9" data-name="Path 9"
              d="M279.65,602.372a31.457,31.457,0,0,1-11.829,15.565s-2.981-11.361.394-21.633a31.458,31.458,0,0,1,11.829-15.565S283.025,592.1,279.65,602.372Z"
              transform="translate(-228.479 -410.466)" fill="#fcb23f"/>
        <path id="Path_10" data-name="Path 10"
              d="M860.34,527.574h0a112.927,112.927,0,0,1-.588-19.3l.588-10.661h0C857.1,505.8,857.832,516.585,860.34,527.574Z"
              transform="translate(-607.112 -365.364)" fill="#cacaca"/>
        <path id="Path_11" data-name="Path 11"
              d="M869.354,545.858h0a83.077,83.077,0,0,1-.283-11.489l.283-6.346h0C867.8,532.9,868.148,539.317,869.354,545.858Z"
              transform="translate(-613.6 -381.864)" fill="#cacaca"/>
        <path id="Path_12" data-name="Path 12"
              d="M859.478,582.9v3.567a.982.982,0,0,1-.842,1.07h-1.4a.253.253,0,0,0-.2.1.409.409,0,0,0-.082.253v29.249a.982.982,0,0,1-.842,1.07H838.987a.978.978,0,0,1-.842-1.07V587.895a.327.327,0,0,0-.281-.357h-1.684a.978.978,0,0,1-.842-1.07V582.9a1.231,1.231,0,0,1,.246-.757.762.762,0,0,1,.6-.313h22.455A.98.98,0,0,1,859.478,582.9Z"
              transform="translate(-592.495 -411.059)" fill="#5638ff"/>
        <rect id="Rectangle_7" data-name="Rectangle 7" width="18.806" height="1.07"
              transform="translate(245.676 177.229)" fill="#e6e6e6"/>
        <path id="Path_13" data-name="Path 13"
              d="M861.443,619.076a19.494,19.494,0,0,1-19.087,0v-7.539a23.964,23.964,0,0,1,19.087,0Z"
              transform="translate(-596.987 -426.101)" fill="#e6e6e6"/>
        <ellipse id="Ellipse_276" data-name="Ellipse 276" cx="25.436" cy="32.325" rx="25.436" ry="32.325"
                 transform="translate(133.61 13.057)" fill="#feb8b8"/>
        <path id="Path_1461" data-name="Path 1461"
              d="M575.044,225.995c-3.8-7.848-9.756-13.63-16.713-16.235l-3.123,2.9V208.9a21.373,21.373,0,0,0-5.051-.374l-2.694,3.1v-2.84c-8.064,1.274-15.342,6.775-20.072,15.172-5.851,10.719-6.838,25.63-1.084,36.435,1.579-6.169,3.5-11.958,5.077-18.127a11.336,11.336,0,0,0,3.743.023l1.922-5.7.537,5.458a201.942,201.942,0,0,0,20.44-3.434l-.549-4.187,3.286,3.479c1.73-.506,2.757-.965,2.673-1.316,4.2,8.6,9.34,14.1,13.54,22.705C578.57,247.155,580.406,237.067,575.044,225.995Z"
              transform="translate(-392.24 -208.5)" fill="#2f2e41"/>
        <path id="Path_14" data-name="Path 14"
              d="M564.965,435.46c-.875-6.687-1.777-13.5-4.223-19.527-1.607-3.946-4.159-7.706-7.6-8.486a6.072,6.072,0,0,1-1.979-.582c-1.008-.617-14.551-10.442-16.7-12.153-1.848-1.469-4.766-4.189-6.237-4.189-1.48-.041-7.155,1.637-29.305-.563a74.2,74.2,0,0,0-10.793,6.744c-.071-.06-22.99,15.58-23.851,15.539-1.631-.087-3.146,1.24-4.081,2.91a21.966,21.966,0,0,0-1.832,5.739c5.006,14.167,9.586,28.351,14.592,42.518a4.414,4.414,0,0,1,.362,1.745,4.872,4.872,0,0,1-.623,1.745c-2.455,5.012-2.377,11.315-2.109,17.205s.6,12.112-1.471,17.392c-.563,1.449-1.3,2.776-1.832,4.226-1.255,3.283-1.708,13.783-.975,17.31l91.831,3.343C556.164,519.477,564.965,435.46,564.965,435.46Z"
              transform="translate(-351.213 -306.955)" fill="#5638ff"/>
        <path id="Path_1421" data-name="Path 1421"
              d="M436.039,542.5a26.146,26.146,0,0,0-.055,5.081l1.316,24.021c.124,2.264.245,4.522.412,6.781.316,4.383.788,8.731,1.373,13.072a2.093,2.093,0,0,0,1.878,2.264c5.794,1.558,11.78,1.5,17.693,1.071,9.023-.64,32.107-1.851,33.517-4.179s.588-6.094-1.25-7.977-32.3-6.472-32.3-6.472a46.145,46.145,0,0,1,2.047-8.667c1.53-5.048,2.959-10.261,2.986-15.668s-1.576-11.092-5.061-14.19c-2.867-2.543-6.559-3.015-10.053-2.91-2.542.093-6.934-.681-9.256.582C437.447,536.342,436.382,540.219,436.039,542.5Z"
              transform="translate(-336.827 -385.422)" fill="#fbbebe"/>
        <path id="Path_1430" data-name="Path 1430"
              d="M441.55,454.122a6.443,6.443,0,0,0-1.017,2.066,119.832,119.832,0,0,0-6.458,33.537,4.113,4.113,0,0,1-.3,1.624,6.757,6.757,0,0,1-.673.925,3.841,3.841,0,0,0,.3,4.528q.062.067.128.129c.756-1.807,2.565-2.4,4.173-2.555,7.7-.774,15.219,3.778,22.941,3.434-.545-2.392-1.328-4.691-1.773-7.112-1.965-10.75,2.936-22.455-.069-32.809-.6-2.072-1.6-4.109-3.183-5.017a7.091,7.091,0,0,0-2.038-.685c-1.951-.448-5.836-2.363-7.722-1.595-.7.285-.971,1.117-1.548,1.62C443.44,452.923,442.277,453.184,441.55,454.122Z"
              transform="translate(-334.665 -339.754)" fill="#5638ff"/>
        <path id="Path_1421-2" data-name="Path 1421"
              d="M659.362,535.314c-2.322-1.263-6.714-.489-9.256-.582-3.494-.1-7.185.367-10.053,2.91-3.486,3.1-5.089,8.783-5.061,14.19s1.456,10.621,2.986,15.668a46.146,46.146,0,0,1,2.047,8.667s-30.463,4.59-32.3,6.472-2.661,5.648-1.251,7.977,45.416,4.666,51.21,3.108a2.093,2.093,0,0,0,1.878-2.264c.586-4.342,1.057-8.689,1.373-13.072.167-2.258.289-4.517.412-6.781l1.316-24.021a26.146,26.146,0,0,0-.055-5.081C662.264,540.218,661.2,536.342,659.362,535.314Z"
              transform="translate(-445.554 -385.422)" fill="#fbbebe"/>
        <path id="Path_1430-2" data-name="Path 1430"
              d="M705.645,452.211c-.577-.5-.852-1.335-1.548-1.62-1.886-.768-5.771,1.147-7.722,1.595a7.091,7.091,0,0,0-2.038.685c-1.58.908-2.583,2.945-3.183,5.017-3,10.355,1.9,22.059-.069,32.809-.444,2.421-1.228,4.72-1.773,7.112,7.722.343,15.242-4.208,22.941-3.434,1.608.157,3.417.748,4.173,2.555q.066-.062.128-.129a3.841,3.841,0,0,0,.3-4.528,6.764,6.764,0,0,1-.673-.925,4.111,4.111,0,0,1-.3-1.624,119.832,119.832,0,0,0-6.458-33.537,6.442,6.442,0,0,0-1.017-2.066C707.685,453.184,706.522,452.923,705.645,452.211Z"
              transform="translate(-499.032 -339.754)" fill="#5638ff"/>
        <ellipse id="Ellipse_5"  cx="6.865" cy="8.724" rx="6.865" ry="8.724"
                 transform="translate(144.647 192)" fill="#fbbebe"/>
        <ellipse id="Ellipse_6"  cx="6.865" cy="8.724" rx="6.865" ry="8.724"
                 transform="translate(159.849 192)" fill="#fbbebe"/>
        <path id="Path_15" data-name="Path 15"
              d="M566.474,591.516H472.156c-2.293,0-4.151-2.364-4.154-5.278V513.522c0-2.914,1.861-5.275,4.154-5.278h94.319c2.293,0,4.151,2.364,4.154,5.278v72.716C570.625,589.152,568.767,591.513,566.474,591.516Z"
              transform="translate(-357.382 -371.133)" fill="#3f3d56"/>
        <ellipse id="Ellipse_263" data-name="Ellipse 263" cx="2.748" cy="3.492" rx="2.748" ry="3.492"
                 transform="translate(158.956 175.255)" fill="#fff"/>
        <path id="Path_16" data-name="Path 16" d="M316.265,449.724H0v12.351H18.707v2.871H297.566v-2.871h18.7Z"
              transform="translate(0 -244.007)" fill="#c3c3c3"/>
        <path id="Path_17" data-name="Path 17"
              d="M524.4,303.9h0c-4.087,0-7.4-4.553-7.4-10.168h0v-5.084c0-5.616,3.313-10.168,7.4-10.168h0Z"
              transform="translate(-388.741 -246.467)" fill="#fcb23f"/>
        <path id="Path_18" data-name="Path 18"
              d="M668.779,278.476h0c4.087,0,7.4,4.553,7.4,10.168v5.084c0,5.616-3.313,10.168-7.4,10.168h0Z"
              transform="translate(-485.889 -246.467)" fill="#fcb23f"/>
        <path id="Path_19" data-name="Path 19"
              d="M579.336,256.524h-1.174c0-20.461-12.115-37.107-27.006-37.107s-27.006,16.646-27.006,37.107h-1.174c0-21.35,12.641-38.72,28.18-38.72S579.336,235.174,579.336,256.524Z"
              transform="translate(-392.569 -213.548)" fill="#214d89"/>
    </g>
</svg>
