<svg id="ic_logo" xmlns="http://www.w3.org/2000/svg" width="348.117" height="90" viewBox="0 0 348.117 90">
    <defs>
        <linearGradient id="linear-gradient" x2="1" gradientUnits="objectBoundingBox">
            <stop offset="0" stop-color="#0d7ce9"/>
            <stop offset="1" stop-color="#15cff1"/>
        </linearGradient>
    </defs>
    <g id="_7d6814b6-7848-4042-ade2-eb05916c67ef" transform="translate(104.571 -0.623)">
        <path id="Path_5"
              d="M5.429,23.657V17.119H46.537V33.352H38.781v-9.7h-20.5V42.105H38.006v6.371H18.283V68.033h5.762v6.482H5.429V68.033h5.429V23.657Zm45.152-1.551V15.623H63.269v52.41H69.2v6.482H50.582V68.033h5.651V22.105Zm60.443,33.74H82.77a19.351,19.351,0,0,0,.222,3.047h0a17.864,17.864,0,0,0,.72,2.6h0A10.648,10.648,0,0,0,88.2,67.2h0a12.721,12.721,0,0,0,6.981,1.939h0a20.6,20.6,0,0,0,5.983-.886h0A27.211,27.211,0,0,0,107.2,65.6h0l2.881,4.82h0a30.433,30.433,0,0,1-7.812,3.934h0a25.745,25.745,0,0,1-8.089,1.274h0a19.951,19.951,0,0,1-7.368-1.33h0A15.772,15.772,0,0,1,81,70.36h0a18.39,18.39,0,0,1-3.823-6.482h0a27.5,27.5,0,0,1-1.385-9.141h0a26.7,26.7,0,0,1,1.163-7.922h0a18.6,18.6,0,0,1,3.49-6.482h0A16.176,16.176,0,0,1,86.26,35.9h0a18.644,18.644,0,0,1,7.978-1.607h0a18.285,18.285,0,0,1,7.424,1.33h0a13.435,13.435,0,0,1,4.875,3.546h0a16.453,16.453,0,0,1,2.825,5.042h0a32.3,32.3,0,0,1,1.33,5.817h0a25.5,25.5,0,0,1,.277,2.936h0q.055,1.44.055,2.881ZM93.8,40.166h0a11.766,11.766,0,0,0-4.321.72h0a8.975,8.975,0,0,0-3.1,1.994h0a9.712,9.712,0,0,0-2.105,3.213h0A19.433,19.433,0,0,0,83.1,50.3H103.49a19.646,19.646,0,0,0-.72-4.044h0a9.49,9.49,0,0,0-1.662-3.213h0a8.2,8.2,0,0,0-2.936-2.105h0A10.922,10.922,0,0,0,93.8,40.166Zm49.862,34.349v-3.6h0a20.506,20.506,0,0,1-4.931,3.38h0a13.8,13.8,0,0,1-6.15,1.33h0a15.454,15.454,0,0,1-5.319-.886h0a14.14,14.14,0,0,1-4.155-2.493h0a11.528,11.528,0,0,1-2.715-3.657h0a10.733,10.733,0,0,1-.942-4.432h0a12.677,12.677,0,0,1,.72-4.432h0a11.369,11.369,0,0,1,1.994-3.324h0a11.478,11.478,0,0,1,2.881-2.438h0a20.42,20.42,0,0,1,3.435-1.551h0a26.059,26.059,0,0,1,3.657-.831h0a30.856,30.856,0,0,1,3.6-.222h0q2.715,0,4.6.166h0a28.47,28.47,0,0,1,3.38.5h0V48.753h0a9.808,9.808,0,0,0-.609-3.6h0a7.62,7.62,0,0,0-1.662-2.548h0a7.218,7.218,0,0,0-2.659-1.5h0a11.183,11.183,0,0,0-3.435-.5h0a19.875,19.875,0,0,0-3.38.277h0a17.661,17.661,0,0,0-3.047.665h0a22.425,22.425,0,0,0-2.659.886h0a12.437,12.437,0,0,0-1.994,1.053h0l-2.327-4.875h0a24.326,24.326,0,0,1,3.1-1.662h0a26.228,26.228,0,0,1,3.49-1.33h0a31.909,31.909,0,0,1,3.712-.886h0a22.285,22.285,0,0,1,3.767-.332h0a21,21,0,0,1,6.15.831h0a12.377,12.377,0,0,1,4.654,2.548h0a10.6,10.6,0,0,1,2.881,4.321h0a16.864,16.864,0,0,1,1.053,6.316h0l-.055,19.612h4.377v6.482Zm-9.529-4.82h0a11.833,11.833,0,0,0,2.77-.332h0a16.048,16.048,0,0,0,2.659-.886h0a14.338,14.338,0,0,0,2.327-1.385h0a10.844,10.844,0,0,0,1.773-1.607h0l.055-8.864h-8.2a14.408,14.408,0,0,0-3.712.443h0a8.585,8.585,0,0,0-2.936,1.33h0a6.766,6.766,0,0,0-1.939,2.161h0a6.257,6.257,0,0,0-.665,2.936h0a6.25,6.25,0,0,0,.554,2.715h0a5.874,5.874,0,0,0,1.607,1.939h0a7.4,7.4,0,0,0,2.493,1.163h0A12.359,12.359,0,0,0,134.128,69.7Zm57.064-34.626V43.6h-7.147V41.163h0a7.387,7.387,0,0,0-2.6.5h0A7.575,7.575,0,0,0,179,43.1h0a9.542,9.542,0,0,0-1.994,2.438h0a11.775,11.775,0,0,0-1.219,3.546h0V68.033h6.7v6.482h-19.5V68.033h5.429l.055-26.205h-5.485V35.291h12.521V40.72h0a20.442,20.442,0,0,1,1.551-2.271h0a12.515,12.515,0,0,1,1.884-1.828h0a7.643,7.643,0,0,1,2.327-1.163h0a8.378,8.378,0,0,1,2.77-.443h3.712q1.717,0,3.435.055Zm34.017,39.446V68.033h5.485V50.083h0q0-4.488-2.271-6.814h0q-2.271-2.327-6.593-2.327h0a11.591,11.591,0,0,0-4.931,1.163h0a24.737,24.737,0,0,0-4.765,2.936h0V68.033h5.54v6.482H199.335V68.033h5.485V41.828h-5.485V35.291h12.521v4.654h.055a31.17,31.17,0,0,1,2.715-2.105h0a17.952,17.952,0,0,1,2.936-1.717h0a16.222,16.222,0,0,1,3.269-1.108h0a13.714,13.714,0,0,1,3.546-.443h0a17.112,17.112,0,0,1,5.651.886h0a11.225,11.225,0,0,1,4.321,2.659h0a12.109,12.109,0,0,1,2.77,4.543h0a20.551,20.551,0,0,1,.942,6.593h0V68.033h5.485v6.482Z"/>
    </g>
    <g id="b79a4768-6179-4111-9798-658630cdc28c">
        <path id="Path_6"
              d="M45,90A45,45,0,1,0,0,45,45,45,0,0,0,45,90ZM41.673,18.059H47.3V43.051H72.293v5.625H41.673Zm-16.76,1.229h5.625V59.459H70.709v5.625h-45.8Z"
              fill="url(#linear-gradient)"/>
    </g>
</svg>
